#!OML:ASF E:\CV Data\Top Level 1\Subject 1\Session 1\player.ASF
:FULLY-SPECIFIED
:DEGREES
664
root 8.06972 17.4019 -10.6255 -142.97 -94.46 -214.138
lowerback 7.21846 1.36486 2.50135
upperback 1.40584 2.02425 3.22445
thorax -2.62317 0.964706 1.73656
lowerneck -15.0932 14.3106 -2.60515
upperneck 16.1018 19.9494 0.765899
head 7.03967 9.45666 2.63232
rclavicle 2.98177e-015 6.36111e-015
rhumerus -38.0056 37.2362 -96.9575
rradius 123.95
rwrist -28.4777
rhand -28.4231 16.1632
rfingers 7.12502
rthumb -1.79456 -13.809
lclavicle 2.98177e-015 6.36111e-015
lhumerus -27.7685 -56.7242 114.101
lradius 93.8059
lwrist -4.19643
lhand -30.5331 8.31426
lfingers 7.12502
lthumb -3.83225 38.2595
rfemur -12.8035 5.09646 17.5719
rtibia 33.4483
rfoot -22.4946 -1.35908
rtoes 0.486422
lfemur -11.8245 1.78096 -9.54169
ltibia 26.229
lfoot -13.7615 -0.918986
ltoes -4.37992
665
root 8.07309 17.3971 -10.6181 -143.752 -94.5211 -213.454
lowerback 7.26321 1.36208 2.52276
upperback 1.42557 2.0229 3.24004
thorax -2.6275 0.963476 1.74008
lowerneck -15.1218 14.2901 -2.61966
upperneck 16.0473 19.9313 0.724324
head 7.03027 9.44489 2.61973
rclavicle -2.10712e-014 -2.70347e-014
rhumerus -37.6343 37.3312 -96.3824
rradius 123.841
rwrist -28.8585
rhand -28.5484 16.0067
rfingers 7.12502
rthumb -1.9156 -13.9644
lclavicle -2.10712e-014 -2.70347e-014
lhumerus -27.2969 -56.9759 113.919
lradius 93.4854
lwrist -3.74958
lhand -30.6137 8.47759
lfingers 7.12502
lthumb -3.9101 38.4215
rfemur -12.725 5.16357 17.5561
rtibia 33.5283
rfoot -22.5358 -1.51794
rtoes 0.37901
lfemur -11.838 1.8535 -9.5781
ltibia 26.3809
lfoot -13.8389 -1.05064
ltoes -4.43424
666
root 8.07592 17.3925 -10.6109 -144.477 -94.5963 -212.821
lowerback 7.301 1.35472 2.55704
upperback 1.44414 2.01613 3.25543
thorax -2.62862 0.959463 1.73684
lowerneck -15.1368 14.27 -2.65199
upperneck 15.9955 19.9142 0.698076
head 7.01595 9.43433 2.61273
rclavicle 2.3556e-014 4.77083e-015
rhumerus -37.3035 37.3966 -95.8392
rradius 123.736
rwrist -29.2105
rhand -28.6693 15.8863
rfingers 7.12502
rthumb -2.0323 -14.0837
lclavicle 2.3556e-014 4.77083e-015
lhumerus -26.8146 -57.2449 113.732
lradius 93.1471
lwrist -3.33406
lhand -30.7061 8.62892
lfingers 7.12502
lthumb -3.99935 38.5711
rfemur -12.6406 5.24431 17.5517
rtibia 33.5952
rfoot -22.5781 -1.68905
rtoes 0.308297
lfemur -11.8555 1.8789 -9.60542
ltibia 26.5312
lfoot -13.9146 -1.14236
ltoes -4.50922
667
root 8.07814 17.3882 -10.6039 -145.238 -94.6797 -212.141
lowerback 7.32656 1.34321 2.59401
upperback 1.46029 2.00365 3.26398
thorax -2.62501 0.952708 1.72579
lowerneck -15.1444 14.2495 -2.69435
upperneck 15.9511 19.8953 0.689756
head 6.99983 9.42402 2.61172
rclavicle 2.72335e-014 1.98785e-014
rhumerus -37.012 37.4332 -95.3317
rradius 123.637
rwrist -29.5283
rhand -28.7797 15.7753
rfingers 7.12502
rthumb -2.13894 -14.1937
lclavicle 2.72335e-014 1.98785e-014
lhumerus -26.3392 -57.5356 113.54
lradius 92.8026
lwrist -2.96728
lhand -30.8263 8.81563
lfingers 7.12502
lthumb -4.11542 38.7556
rfemur -12.5588 5.32101 17.548
rtibia 33.6532
rfoot -22.6209 -1.86708
rtoes 0.229625
lfemur -11.8813 1.8898 -9.63162
ltibia 26.6745
lfoot -13.9906 -1.23431
ltoes -4.57026
668
root 8.07981 17.384 -10.597 -146.014 -94.769 -211.434
lowerback 7.34322 1.32529 2.63705
upperback 1.4711 1.98299 3.26618
thorax -2.62143 0.941923 1.70568
lowerneck -15.1406 14.2317 -2.74693
upperneck 15.9168 19.8794 0.697198
head 6.9823 9.41593 2.61634
rclavicle -1.75924e-014 1.35174e-014
rhumerus -36.7598 37.4444 -94.866
rradius 123.545
rwrist -29.8109
rhand -28.8694 15.6489
rfingers 7.12502
rthumb -2.22559 -14.3192
lclavicle -1.75924e-014 1.35174e-014
lhumerus -25.8776 -57.8179 113.353
lradius 92.4597
lwrist -2.63423
lhand -30.9364 9.00793
lfingers 7.12502
lthumb -4.22168 38.9458
rfemur -12.4833 5.38574 17.5416
rtibia 33.705
rfoot -22.6641 -2.03532
rtoes 0.166572
lfemur -11.9137 1.89572 -9.65798
ltibia 26.808
lfoot -14.0667 -1.33191
ltoes -4.63352
669
root 8.08089 17.3802 -10.5901 -146.781 -94.8614 -210.725
lowerback 7.35035 1.30025 2.68921
upperback 1.47775 1.95329 3.25903
thorax -2.61614 0.926674 1.67179
lowerneck -15.1388 14.2228 -2.79182
upperneck 15.9047 19.8724 0.718792
head 6.97135 9.41296 2.62635
rclavicle -1.21259e-014 1.27222e-014
rhumerus -36.5419 37.4374 -94.4476
rradius 123.459
rwrist -30.0667
rhand -28.9488 15.5151
rfingers 7.12502
rthumb -2.30231 -14.4522
lclavicle -1.21259e-014 1.27222e-014
lhumerus -25.4404 -58.0954 113.159
lradius 92.1369
lwrist -2.32282
lhand -31.0329 9.18765
lfingers 7.12502
lthumb -4.31491 39.1237
rfemur -12.4163 5.42968 17.5317
rtibia 33.7516
rfoot -22.706 -2.18267
rtoes 0.11382
lfemur -11.9517 1.88856 -9.68424
ltibia 26.9317
lfoot -14.1385 -1.42603
ltoes -4.67378
670
root 8.08156 17.3769 -10.5833 -147.51 -94.9534 -210.039
lowerback 7.34737 1.27007 2.74587
upperback 1.47917 1.91691 3.24566
thorax -2.61025 0.908171 1.62973
lowerneck -15.1364 14.2214 -2.82921
upperneck 15.9097 19.8735 0.74779
head 6.96556 9.41425 2.63924
rclavicle -8.44835e-015 7.95139e-016
rhumerus -36.3534 37.4161 -94.0698
rradius 123.381
rwrist -30.3079
rhand -29.014 15.3653
rfingers 7.12502
rthumb -2.36523 -14.6013
lclavicle -8.44835e-015 7.95139e-016
lhumerus -25.0351 -58.3455 112.986
lradius 91.8271
lwrist -2.03104
lhand -31.1049 9.32359
lfingers 7.12502
lthumb -4.38446 39.2582
rfemur -12.3628 5.45789 17.5193
rtibia 33.7925
rfoot -22.7419 -2.31417
rtoes 0.0493088
lfemur -11.9984 1.87084 -9.70895
ltibia 27.0455
lfoot -14.2042 -1.52151
ltoes -4.66569
